<?xml version="1.0" standalone="no"?>
<!DOCTYPE svg PUBLIC "-//W3C//DTD SVG 20010904//EN"
 "http://www.w3.org/TR/2001/REC-SVG-20010904/DTD/svg10.dtd">
<svg version="1.0" xmlns="http://www.w3.org/2000/svg"
 width="1000.000000pt" height="1000.000000pt" viewBox="0 0 1000.000000 1000.000000"
 preserveAspectRatio="xMidYMid meet">

<g transform="translate(0.000000,1000.000000) scale(0.100000,-0.100000)"
fill="#000000" stroke="none">
<path d="M4615 9144 c-1262 -114 -2400 -799 -3099 -1864 -45 -69 -106 -166
-135 -217 -53 -94 -221 -434 -221 -449 0 -4 25 26 55 67 361 482 907 847 1504
1005 239 62 429 86 701 86 203 0 258 -4 402 -26 733 -113 1363 -487 1806
-1070 276 -364 455 -792 528 -1264 22 -144 26 -199 26 -402 0 -203 -4 -258
-26 -402 -59 -383 -186 -732 -378 -1043 -434 -704 -1134 -1166 -1958 -1292
-141 -21 -199 -25 -400 -25 -272 0 -462 24 -701 86 -597 158 -1143 523 -1504
1005 -30 41 -55 71 -55 67 0 -15 168 -355 221 -449 29 -51 90 -148 135 -217
773 -1178 2071 -1880 3474 -1880 1105 0 2152 434 2934 1216 695 695 1115 1597
1201 2579 80 918 -155 1855 -661 2625 -777 1185 -2083 1886 -3494 1879 -113
-1 -272 -7 -355 -15z"/>
</g>
</svg>
